<?xml version="1.0" encoding="utf-8" standalone="no"?>
<!DOCTYPE svg PUBLIC "-//W3C//DTD SVG 1.1//EN"
  "http://www.w3.org/Graphics/SVG/1.1/DTD/svg11.dtd">
<!-- Created with matplotlib (http://matplotlib.org/) -->
<svg height="234pt" version="1.1" viewBox="0 0 504 234" width="504pt" xmlns="http://www.w3.org/2000/svg" xmlns:xlink="http://www.w3.org/1999/xlink">
 <defs>
  <style type="text/css">
*{stroke-linecap:butt;stroke-linejoin:round;stroke-miterlimit:100000;}
  </style>
 </defs>
 <g id="figure_1">
  <g id="patch_1">
   <path d="M 0 234 
L 504 234 
L 504 0 
L 0 0 
z
" style="fill:#ffffff;"/>
  </g>
  <g id="axes_1">
   <g id="patch_2">
    <path clip-path="url(#p7d0cf04594)" d="M 123.679834 182.372727 
L 277.2 182.372727 
L 277.2 173.536364 
L 123.679834 173.536364 
z
" style="fill:#ff0000;stroke:#000000;stroke-linejoin:miter;"/>
   </g>
   <g id="patch_3">
    <path clip-path="url(#p7d0cf04594)" d="M 123.679834 171.327273 
L 277.2 171.327273 
L 277.2 162.490909 
L 123.679834 162.490909 
z
" style="fill:#ff0000;stroke:#000000;stroke-linejoin:miter;"/>
   </g>
   <g id="patch_4">
    <path clip-path="url(#p7d0cf04594)" d="M 146.204386 160.281818 
L 277.2 160.281818 
L 277.2 151.445455 
L 146.204386 151.445455 
z
" style="fill:#ff0000;stroke:#000000;stroke-linejoin:miter;"/>
   </g>
   <g id="patch_5">
    <path clip-path="url(#p7d0cf04594)" d="M 160.631925 149.236364 
L 277.2 149.236364 
L 277.2 140.4 
L 160.631925 140.4 
z
" style="fill:#ff0000;stroke:#000000;stroke-linejoin:miter;"/>
   </g>
   <g id="patch_6">
    <path clip-path="url(#p7d0cf04594)" d="M 277.2 138.190909 
L 396.94102 138.190909 
L 396.94102 129.354545 
L 277.2 129.354545 
z
" style="fill:#008000;stroke:#000000;stroke-linejoin:miter;"/>
   </g>
   <g id="patch_7">
    <path clip-path="url(#p7d0cf04594)" d="M 277.2 127.145455 
L 398.080125 127.145455 
L 398.080125 118.309091 
L 277.2 118.309091 
z
" style="fill:#008000;stroke:#000000;stroke-linejoin:miter;"/>
   </g>
   <g id="patch_8">
    <path clip-path="url(#p7d0cf04594)" d="M 277.2 116.1 
L 406.213638 116.1 
L 406.213638 107.263636 
L 277.2 107.263636 
z
" style="fill:#008000;stroke:#000000;stroke-linejoin:miter;"/>
   </g>
   <g id="patch_9">
    <path clip-path="url(#p7d0cf04594)" d="M 277.2 105.054545 
L 414.033361 105.054545 
L 414.033361 96.218182 
L 277.2 96.218182 
z
" style="fill:#008000;stroke:#000000;stroke-linejoin:miter;"/>
   </g>
   <g id="patch_10">
    <path clip-path="url(#p7d0cf04594)" d="M 277.2 94.009091 
L 420.92304 94.009091 
L 420.92304 85.172727 
L 277.2 85.172727 
z
" style="fill:#008000;stroke:#000000;stroke-linejoin:miter;"/>
   </g>
   <g id="patch_11">
    <path clip-path="url(#p7d0cf04594)" d="M 277.2 82.963636 
L 420.986309 82.963636 
L 420.986309 74.127273 
L 277.2 74.127273 
z
" style="fill:#008000;stroke:#000000;stroke-linejoin:miter;"/>
   </g>
   <g id="matplotlib.axis_1">
    <g id="xtick_1">
     <g id="line2d_1">
      <path clip-path="url(#p7d0cf04594)" d="M 136.08 189 
L 136.08 67.5 
" style="fill:none;stroke:#000000;stroke-dasharray:1.000000,3.000000;stroke-dashoffset:0.0;stroke-width:0.5;"/>
     </g>
     <g id="line2d_2">
      <defs>
       <path d="M 0 0 
L 0 -4 
" id="m017c803c36" style="stroke:#000000;stroke-width:0.5;"/>
      </defs>
      <g>
       <use style="stroke:#000000;stroke-width:0.5;" x="136.08" xlink:href="#m017c803c36" y="189.0"/>
      </g>
     </g>
     <g id="line2d_3">
      <defs>
       <path d="M 0 0 
L 0 4 
" id="m4b6e1cbdad" style="stroke:#000000;stroke-width:0.5;"/>
      </defs>
      <g>
       <use style="stroke:#000000;stroke-width:0.5;" x="136.08" xlink:href="#m4b6e1cbdad" y="67.5"/>
      </g>
     </g>
     <g id="text_1">
      <!-- −4 -->
      <defs>
       <path d="M 10.59375 35.5 
L 73.1875 35.5 
L 73.1875 27.203125 
L 10.59375 27.203125 
z
" id="BitstreamVeraSans-Roman-2212"/>
       <path d="M 37.796875 64.3125 
L 12.890625 25.390625 
L 37.796875 25.390625 
z
M 35.203125 72.90625 
L 47.609375 72.90625 
L 47.609375 25.390625 
L 58.015625 25.390625 
L 58.015625 17.1875 
L 47.609375 17.1875 
L 47.609375 0 
L 37.796875 0 
L 37.796875 17.1875 
L 4.890625 17.1875 
L 4.890625 26.703125 
z
" id="BitstreamVeraSans-Roman-34"/>
      </defs>
      <g transform="translate(127.2346875 202.118125)scale(0.12 -0.12)">
       <use xlink:href="#BitstreamVeraSans-Roman-2212"/>
       <use x="83.7890625" xlink:href="#BitstreamVeraSans-Roman-34"/>
      </g>
     </g>
    </g>
    <g id="xtick_2">
     <g id="line2d_4">
      <path clip-path="url(#p7d0cf04594)" d="M 206.64 189 
L 206.64 67.5 
" style="fill:none;stroke:#000000;stroke-dasharray:1.000000,3.000000;stroke-dashoffset:0.0;stroke-width:0.5;"/>
     </g>
     <g id="line2d_5">
      <g>
       <use style="stroke:#000000;stroke-width:0.5;" x="206.64" xlink:href="#m017c803c36" y="189.0"/>
      </g>
     </g>
     <g id="line2d_6">
      <g>
       <use style="stroke:#000000;stroke-width:0.5;" x="206.64" xlink:href="#m4b6e1cbdad" y="67.5"/>
      </g>
     </g>
     <g id="text_2">
      <!-- −2 -->
      <defs>
       <path d="M 19.1875 8.296875 
L 53.609375 8.296875 
L 53.609375 0 
L 7.328125 0 
L 7.328125 8.296875 
Q 12.9375 14.109375 22.625 23.890625 
Q 32.328125 33.6875 34.8125 36.53125 
Q 39.546875 41.84375 41.421875 45.53125 
Q 43.3125 49.21875 43.3125 52.78125 
Q 43.3125 58.59375 39.234375 62.25 
Q 35.15625 65.921875 28.609375 65.921875 
Q 23.96875 65.921875 18.8125 64.3125 
Q 13.671875 62.703125 7.8125 59.421875 
L 7.8125 69.390625 
Q 13.765625 71.78125 18.9375 73 
Q 24.125 74.21875 28.421875 74.21875 
Q 39.75 74.21875 46.484375 68.546875 
Q 53.21875 62.890625 53.21875 53.421875 
Q 53.21875 48.921875 51.53125 44.890625 
Q 49.859375 40.875 45.40625 35.40625 
Q 44.1875 33.984375 37.640625 27.21875 
Q 31.109375 20.453125 19.1875 8.296875 
" id="BitstreamVeraSans-Roman-32"/>
      </defs>
      <g transform="translate(197.7946875 202.118125)scale(0.12 -0.12)">
       <use xlink:href="#BitstreamVeraSans-Roman-2212"/>
       <use x="83.7890625" xlink:href="#BitstreamVeraSans-Roman-32"/>
      </g>
     </g>
    </g>
    <g id="xtick_3">
     <g id="line2d_7">
      <path clip-path="url(#p7d0cf04594)" d="M 277.2 189 
L 277.2 67.5 
" style="fill:none;stroke:#000000;stroke-dasharray:1.000000,3.000000;stroke-dashoffset:0.0;stroke-width:0.5;"/>
     </g>
     <g id="line2d_8">
      <g>
       <use style="stroke:#000000;stroke-width:0.5;" x="277.2" xlink:href="#m017c803c36" y="189.0"/>
      </g>
     </g>
     <g id="line2d_9">
      <g>
       <use style="stroke:#000000;stroke-width:0.5;" x="277.2" xlink:href="#m4b6e1cbdad" y="67.5"/>
      </g>
     </g>
     <g id="text_3">
      <!-- 0 -->
      <defs>
       <path d="M 31.78125 66.40625 
Q 24.171875 66.40625 20.328125 58.90625 
Q 16.5 51.421875 16.5 36.375 
Q 16.5 21.390625 20.328125 13.890625 
Q 24.171875 6.390625 31.78125 6.390625 
Q 39.453125 6.390625 43.28125 13.890625 
Q 47.125 21.390625 47.125 36.375 
Q 47.125 51.421875 43.28125 58.90625 
Q 39.453125 66.40625 31.78125 66.40625 
M 31.78125 74.21875 
Q 44.046875 74.21875 50.515625 64.515625 
Q 56.984375 54.828125 56.984375 36.375 
Q 56.984375 17.96875 50.515625 8.265625 
Q 44.046875 -1.421875 31.78125 -1.421875 
Q 19.53125 -1.421875 13.0625 8.265625 
Q 6.59375 17.96875 6.59375 36.375 
Q 6.59375 54.828125 13.0625 64.515625 
Q 19.53125 74.21875 31.78125 74.21875 
" id="BitstreamVeraSans-Roman-30"/>
      </defs>
      <g transform="translate(273.3825 202.118125)scale(0.12 -0.12)">
       <use xlink:href="#BitstreamVeraSans-Roman-30"/>
      </g>
     </g>
    </g>
    <g id="xtick_4">
     <g id="line2d_10">
      <path clip-path="url(#p7d0cf04594)" d="M 347.76 189 
L 347.76 67.5 
" style="fill:none;stroke:#000000;stroke-dasharray:1.000000,3.000000;stroke-dashoffset:0.0;stroke-width:0.5;"/>
     </g>
     <g id="line2d_11">
      <g>
       <use style="stroke:#000000;stroke-width:0.5;" x="347.76" xlink:href="#m017c803c36" y="189.0"/>
      </g>
     </g>
     <g id="line2d_12">
      <g>
       <use style="stroke:#000000;stroke-width:0.5;" x="347.76" xlink:href="#m4b6e1cbdad" y="67.5"/>
      </g>
     </g>
     <g id="text_4">
      <!-- 2 -->
      <g transform="translate(343.9425 202.118125)scale(0.12 -0.12)">
       <use xlink:href="#BitstreamVeraSans-Roman-32"/>
      </g>
     </g>
    </g>
    <g id="xtick_5">
     <g id="line2d_13">
      <path clip-path="url(#p7d0cf04594)" d="M 418.32 189 
L 418.32 67.5 
" style="fill:none;stroke:#000000;stroke-dasharray:1.000000,3.000000;stroke-dashoffset:0.0;stroke-width:0.5;"/>
     </g>
     <g id="line2d_14">
      <g>
       <use style="stroke:#000000;stroke-width:0.5;" x="418.32" xlink:href="#m017c803c36" y="189.0"/>
      </g>
     </g>
     <g id="line2d_15">
      <g>
       <use style="stroke:#000000;stroke-width:0.5;" x="418.32" xlink:href="#m4b6e1cbdad" y="67.5"/>
      </g>
     </g>
     <g id="text_5">
      <!-- 4 -->
      <g transform="translate(414.5025 202.118125)scale(0.12 -0.12)">
       <use xlink:href="#BitstreamVeraSans-Roman-34"/>
      </g>
     </g>
    </g>
    <g id="text_6">
     <!-- LDA SCORE (log 10) -->
     <defs>
      <path id="BitstreamVeraSans-Roman-20"/>
      <path d="M 12.40625 8.296875 
L 28.515625 8.296875 
L 28.515625 63.921875 
L 10.984375 60.40625 
L 10.984375 69.390625 
L 28.421875 72.90625 
L 38.28125 72.90625 
L 38.28125 8.296875 
L 54.390625 8.296875 
L 54.390625 0 
L 12.40625 0 
z
" id="BitstreamVeraSans-Roman-31"/>
      <path d="M 9.8125 72.90625 
L 19.671875 72.90625 
L 19.671875 8.296875 
L 55.171875 8.296875 
L 55.171875 0 
L 9.8125 0 
z
" id="BitstreamVeraSans-Roman-4c"/>
      <path d="M 39.40625 66.21875 
Q 28.65625 66.21875 22.328125 58.203125 
Q 16.015625 50.203125 16.015625 36.375 
Q 16.015625 22.609375 22.328125 14.59375 
Q 28.65625 6.59375 39.40625 6.59375 
Q 50.140625 6.59375 56.421875 14.59375 
Q 62.703125 22.609375 62.703125 36.375 
Q 62.703125 50.203125 56.421875 58.203125 
Q 50.140625 66.21875 39.40625 66.21875 
M 39.40625 74.21875 
Q 54.734375 74.21875 63.90625 63.9375 
Q 73.09375 53.65625 73.09375 36.375 
Q 73.09375 19.140625 63.90625 8.859375 
Q 54.734375 -1.421875 39.40625 -1.421875 
Q 24.03125 -1.421875 14.8125 8.828125 
Q 5.609375 19.09375 5.609375 36.375 
Q 5.609375 53.65625 14.8125 63.9375 
Q 24.03125 74.21875 39.40625 74.21875 
" id="BitstreamVeraSans-Roman-4f"/>
      <path d="M 8.015625 75.875 
L 15.828125 75.875 
Q 23.140625 64.359375 26.78125 53.3125 
Q 30.421875 42.28125 30.421875 31.390625 
Q 30.421875 20.453125 26.78125 9.375 
Q 23.140625 -1.703125 15.828125 -13.1875 
L 8.015625 -13.1875 
Q 14.5 -2 17.703125 9.0625 
Q 20.90625 20.125 20.90625 31.390625 
Q 20.90625 42.671875 17.703125 53.65625 
Q 14.5 64.65625 8.015625 75.875 
" id="BitstreamVeraSans-Roman-29"/>
      <path d="M 31 75.875 
Q 24.46875 64.65625 21.28125 53.65625 
Q 18.109375 42.671875 18.109375 31.390625 
Q 18.109375 20.125 21.3125 9.0625 
Q 24.515625 -2 31 -13.1875 
L 23.1875 -13.1875 
Q 15.875 -1.703125 12.234375 9.375 
Q 8.59375 20.453125 8.59375 31.390625 
Q 8.59375 42.28125 12.203125 53.3125 
Q 15.828125 64.359375 23.1875 75.875 
z
" id="BitstreamVeraSans-Roman-28"/>
      <path d="M 30.609375 48.390625 
Q 23.390625 48.390625 19.1875 42.75 
Q 14.984375 37.109375 14.984375 27.296875 
Q 14.984375 17.484375 19.15625 11.84375 
Q 23.34375 6.203125 30.609375 6.203125 
Q 37.796875 6.203125 41.984375 11.859375 
Q 46.1875 17.53125 46.1875 27.296875 
Q 46.1875 37.015625 41.984375 42.703125 
Q 37.796875 48.390625 30.609375 48.390625 
M 30.609375 56 
Q 42.328125 56 49.015625 48.375 
Q 55.71875 40.765625 55.71875 27.296875 
Q 55.71875 13.875 49.015625 6.21875 
Q 42.328125 -1.421875 30.609375 -1.421875 
Q 18.84375 -1.421875 12.171875 6.21875 
Q 5.515625 13.875 5.515625 27.296875 
Q 5.515625 40.765625 12.171875 48.375 
Q 18.84375 56 30.609375 56 
" id="BitstreamVeraSans-Roman-6f"/>
      <path d="M 9.8125 72.90625 
L 55.90625 72.90625 
L 55.90625 64.59375 
L 19.671875 64.59375 
L 19.671875 43.015625 
L 54.390625 43.015625 
L 54.390625 34.71875 
L 19.671875 34.71875 
L 19.671875 8.296875 
L 56.78125 8.296875 
L 56.78125 0 
L 9.8125 0 
z
" id="BitstreamVeraSans-Roman-45"/>
      <path d="M 9.421875 75.984375 
L 18.40625 75.984375 
L 18.40625 0 
L 9.421875 0 
z
" id="BitstreamVeraSans-Roman-6c"/>
      <path d="M 44.390625 34.1875 
Q 47.5625 33.109375 50.5625 29.59375 
Q 53.5625 26.078125 56.59375 19.921875 
L 66.609375 0 
L 56 0 
L 46.6875 18.703125 
Q 43.0625 26.03125 39.671875 28.421875 
Q 36.28125 30.8125 30.421875 30.8125 
L 19.671875 30.8125 
L 19.671875 0 
L 9.8125 0 
L 9.8125 72.90625 
L 32.078125 72.90625 
Q 44.578125 72.90625 50.734375 67.671875 
Q 56.890625 62.453125 56.890625 51.90625 
Q 56.890625 45.015625 53.6875 40.46875 
Q 50.484375 35.9375 44.390625 34.1875 
M 19.671875 64.796875 
L 19.671875 38.921875 
L 32.078125 38.921875 
Q 39.203125 38.921875 42.84375 42.21875 
Q 46.484375 45.515625 46.484375 51.90625 
Q 46.484375 58.296875 42.84375 61.546875 
Q 39.203125 64.796875 32.078125 64.796875 
z
" id="BitstreamVeraSans-Roman-52"/>
      <path d="M 19.671875 64.796875 
L 19.671875 8.109375 
L 31.59375 8.109375 
Q 46.6875 8.109375 53.6875 14.9375 
Q 60.6875 21.78125 60.6875 36.53125 
Q 60.6875 51.171875 53.6875 57.984375 
Q 46.6875 64.796875 31.59375 64.796875 
z
M 9.8125 72.90625 
L 30.078125 72.90625 
Q 51.265625 72.90625 61.171875 64.09375 
Q 71.09375 55.28125 71.09375 36.53125 
Q 71.09375 17.671875 61.125 8.828125 
Q 51.171875 0 30.078125 0 
L 9.8125 0 
z
" id="BitstreamVeraSans-Roman-44"/>
      <path d="M 64.40625 67.28125 
L 64.40625 56.890625 
Q 59.421875 61.53125 53.78125 63.8125 
Q 48.140625 66.109375 41.796875 66.109375 
Q 29.296875 66.109375 22.65625 58.46875 
Q 16.015625 50.828125 16.015625 36.375 
Q 16.015625 21.96875 22.65625 14.328125 
Q 29.296875 6.6875 41.796875 6.6875 
Q 48.140625 6.6875 53.78125 8.984375 
Q 59.421875 11.28125 64.40625 15.921875 
L 64.40625 5.609375 
Q 59.234375 2.09375 53.4375 0.328125 
Q 47.65625 -1.421875 41.21875 -1.421875 
Q 24.65625 -1.421875 15.125 8.703125 
Q 5.609375 18.84375 5.609375 36.375 
Q 5.609375 53.953125 15.125 64.078125 
Q 24.65625 74.21875 41.21875 74.21875 
Q 47.75 74.21875 53.53125 72.484375 
Q 59.328125 70.75 64.40625 67.28125 
" id="BitstreamVeraSans-Roman-43"/>
      <path d="M 34.1875 63.1875 
L 20.796875 26.90625 
L 47.609375 26.90625 
z
M 28.609375 72.90625 
L 39.796875 72.90625 
L 67.578125 0 
L 57.328125 0 
L 50.6875 18.703125 
L 17.828125 18.703125 
L 11.1875 0 
L 0.78125 0 
z
" id="BitstreamVeraSans-Roman-41"/>
      <path d="M 45.40625 27.984375 
Q 45.40625 37.75 41.375 43.109375 
Q 37.359375 48.484375 30.078125 48.484375 
Q 22.859375 48.484375 18.828125 43.109375 
Q 14.796875 37.75 14.796875 27.984375 
Q 14.796875 18.265625 18.828125 12.890625 
Q 22.859375 7.515625 30.078125 7.515625 
Q 37.359375 7.515625 41.375 12.890625 
Q 45.40625 18.265625 45.40625 27.984375 
M 54.390625 6.78125 
Q 54.390625 -7.171875 48.1875 -13.984375 
Q 42 -20.796875 29.203125 -20.796875 
Q 24.46875 -20.796875 20.265625 -20.09375 
Q 16.0625 -19.390625 12.109375 -17.921875 
L 12.109375 -9.1875 
Q 16.0625 -11.328125 19.921875 -12.34375 
Q 23.78125 -13.375 27.78125 -13.375 
Q 36.625 -13.375 41.015625 -8.765625 
Q 45.40625 -4.15625 45.40625 5.171875 
L 45.40625 9.625 
Q 42.625 4.78125 38.28125 2.390625 
Q 33.9375 0 27.875 0 
Q 17.828125 0 11.671875 7.65625 
Q 5.515625 15.328125 5.515625 27.984375 
Q 5.515625 40.671875 11.671875 48.328125 
Q 17.828125 56 27.875 56 
Q 33.9375 56 38.28125 53.609375 
Q 42.625 51.21875 45.40625 46.390625 
L 45.40625 54.6875 
L 54.390625 54.6875 
z
" id="BitstreamVeraSans-Roman-67"/>
      <path d="M 53.515625 70.515625 
L 53.515625 60.890625 
Q 47.90625 63.578125 42.921875 64.890625 
Q 37.9375 66.21875 33.296875 66.21875 
Q 25.25 66.21875 20.875 63.09375 
Q 16.5 59.96875 16.5 54.203125 
Q 16.5 49.359375 19.40625 46.890625 
Q 22.3125 44.4375 30.421875 42.921875 
L 36.375 41.703125 
Q 47.40625 39.59375 52.65625 34.296875 
Q 57.90625 29 57.90625 20.125 
Q 57.90625 9.515625 50.796875 4.046875 
Q 43.703125 -1.421875 29.984375 -1.421875 
Q 24.8125 -1.421875 18.96875 -0.25 
Q 13.140625 0.921875 6.890625 3.21875 
L 6.890625 13.375 
Q 12.890625 10.015625 18.65625 8.296875 
Q 24.421875 6.59375 29.984375 6.59375 
Q 38.421875 6.59375 43.015625 9.90625 
Q 47.609375 13.234375 47.609375 19.390625 
Q 47.609375 24.75 44.3125 27.78125 
Q 41.015625 30.8125 33.5 32.328125 
L 27.484375 33.5 
Q 16.453125 35.6875 11.515625 40.375 
Q 6.59375 45.0625 6.59375 53.421875 
Q 6.59375 63.09375 13.40625 68.65625 
Q 20.21875 74.21875 32.171875 74.21875 
Q 37.3125 74.21875 42.625 73.28125 
Q 47.953125 72.359375 53.515625 70.515625 
" id="BitstreamVeraSans-Roman-53"/>
     </defs>
     <g transform="translate(217.2665625 218.731875)scale(0.12 -0.12)">
      <use xlink:href="#BitstreamVeraSans-Roman-4c"/>
      <use x="55.712890625" xlink:href="#BitstreamVeraSans-Roman-44"/>
      <use x="132.69921875" xlink:href="#BitstreamVeraSans-Roman-41"/>
      <use x="201.107421875" xlink:href="#BitstreamVeraSans-Roman-20"/>
      <use x="232.89453125" xlink:href="#BitstreamVeraSans-Roman-53"/>
      <use x="296.37109375" xlink:href="#BitstreamVeraSans-Roman-43"/>
      <use x="366.1953125" xlink:href="#BitstreamVeraSans-Roman-4f"/>
      <use x="444.90625" xlink:href="#BitstreamVeraSans-Roman-52"/>
      <use x="514.388671875" xlink:href="#BitstreamVeraSans-Roman-45"/>
      <use x="577.572265625" xlink:href="#BitstreamVeraSans-Roman-20"/>
      <use x="609.359375" xlink:href="#BitstreamVeraSans-Roman-28"/>
      <use x="648.373046875" xlink:href="#BitstreamVeraSans-Roman-6c"/>
      <use x="676.15625" xlink:href="#BitstreamVeraSans-Roman-6f"/>
      <use x="737.337890625" xlink:href="#BitstreamVeraSans-Roman-67"/>
      <use x="800.814453125" xlink:href="#BitstreamVeraSans-Roman-20"/>
      <use x="832.6015625" xlink:href="#BitstreamVeraSans-Roman-31"/>
      <use x="896.224609375" xlink:href="#BitstreamVeraSans-Roman-30"/>
      <use x="959.84765625" xlink:href="#BitstreamVeraSans-Roman-29"/>
     </g>
    </g>
   </g>
   <g id="matplotlib.axis_2"/>
   <g id="text_7">
    <!-- g__Dorea -->
    <defs>
     <path d="M 56.203125 29.59375 
L 56.203125 25.203125 
L 14.890625 25.203125 
Q 15.484375 15.921875 20.484375 11.0625 
Q 25.484375 6.203125 34.421875 6.203125 
Q 39.59375 6.203125 44.453125 7.46875 
Q 49.3125 8.734375 54.109375 11.28125 
L 54.109375 2.78125 
Q 49.265625 0.734375 44.1875 -0.34375 
Q 39.109375 -1.421875 33.890625 -1.421875 
Q 20.796875 -1.421875 13.15625 6.1875 
Q 5.515625 13.8125 5.515625 26.8125 
Q 5.515625 40.234375 12.765625 48.109375 
Q 20.015625 56 32.328125 56 
Q 43.359375 56 49.78125 48.890625 
Q 56.203125 41.796875 56.203125 29.59375 
M 47.21875 32.234375 
Q 47.125 39.59375 43.09375 43.984375 
Q 39.0625 48.390625 32.421875 48.390625 
Q 24.90625 48.390625 20.390625 44.140625 
Q 15.875 39.890625 15.1875 32.171875 
z
" id="BitstreamVeraSans-Roman-65"/>
     <path d="M 34.28125 27.484375 
Q 23.390625 27.484375 19.1875 25 
Q 14.984375 22.515625 14.984375 16.5 
Q 14.984375 11.71875 18.140625 8.90625 
Q 21.296875 6.109375 26.703125 6.109375 
Q 34.1875 6.109375 38.703125 11.40625 
Q 43.21875 16.703125 43.21875 25.484375 
L 43.21875 27.484375 
z
M 52.203125 31.203125 
L 52.203125 0 
L 43.21875 0 
L 43.21875 8.296875 
Q 40.140625 3.328125 35.546875 0.953125 
Q 30.953125 -1.421875 24.3125 -1.421875 
Q 15.921875 -1.421875 10.953125 3.296875 
Q 6 8.015625 6 15.921875 
Q 6 25.140625 12.171875 29.828125 
Q 18.359375 34.515625 30.609375 34.515625 
L 43.21875 34.515625 
L 43.21875 35.40625 
Q 43.21875 41.609375 39.140625 45 
Q 35.0625 48.390625 27.6875 48.390625 
Q 23 48.390625 18.546875 47.265625 
Q 14.109375 46.140625 10.015625 43.890625 
L 10.015625 52.203125 
Q 14.9375 54.109375 19.578125 55.046875 
Q 24.21875 56 28.609375 56 
Q 40.484375 56 46.34375 49.84375 
Q 52.203125 43.703125 52.203125 31.203125 
" id="BitstreamVeraSans-Roman-61"/>
     <path d="M 41.109375 46.296875 
Q 39.59375 47.171875 37.8125 47.578125 
Q 36.03125 48 33.890625 48 
Q 26.265625 48 22.1875 43.046875 
Q 18.109375 38.09375 18.109375 28.8125 
L 18.109375 0 
L 9.078125 0 
L 9.078125 54.6875 
L 18.109375 54.6875 
L 18.109375 46.1875 
Q 20.953125 51.171875 25.484375 53.578125 
Q 30.03125 56 36.53125 56 
Q 37.453125 56 38.578125 55.875 
Q 39.703125 55.765625 41.0625 55.515625 
z
" id="BitstreamVeraSans-Roman-72"/>
     <path d="M 50.984375 -16.609375 
L 50.984375 -23.578125 
L -0.984375 -23.578125 
L -0.984375 -16.609375 
z
" id="BitstreamVeraSans-Roman-5f"/>
    </defs>
    <g transform="translate(281.038004147 181.268181818)scale(0.07 -0.07)">
     <use xlink:href="#BitstreamVeraSans-Roman-67"/>
     <use x="63.4765625" xlink:href="#BitstreamVeraSans-Roman-5f"/>
     <use x="113.4765625" xlink:href="#BitstreamVeraSans-Roman-5f"/>
     <use x="163.4765625" xlink:href="#BitstreamVeraSans-Roman-44"/>
     <use x="240.478515625" xlink:href="#BitstreamVeraSans-Roman-6f"/>
     <use x="301.66015625" xlink:href="#BitstreamVeraSans-Roman-72"/>
     <use x="342.7421875" xlink:href="#BitstreamVeraSans-Roman-65"/>
     <use x="404.265625" xlink:href="#BitstreamVeraSans-Roman-61"/>
    </g>
   </g>
   <g id="text_8">
    <!-- s__Doreaformicigenerans -->
    <defs>
     <path d="M 54.890625 33.015625 
L 54.890625 0 
L 45.90625 0 
L 45.90625 32.71875 
Q 45.90625 40.484375 42.875 44.328125 
Q 39.84375 48.1875 33.796875 48.1875 
Q 26.515625 48.1875 22.3125 43.546875 
Q 18.109375 38.921875 18.109375 30.90625 
L 18.109375 0 
L 9.078125 0 
L 9.078125 54.6875 
L 18.109375 54.6875 
L 18.109375 46.1875 
Q 21.34375 51.125 25.703125 53.5625 
Q 30.078125 56 35.796875 56 
Q 45.21875 56 50.046875 50.171875 
Q 54.890625 44.34375 54.890625 33.015625 
" id="BitstreamVeraSans-Roman-6e"/>
     <path d="M 52 44.1875 
Q 55.375 50.25 60.0625 53.125 
Q 64.75 56 71.09375 56 
Q 79.640625 56 84.28125 50.015625 
Q 88.921875 44.046875 88.921875 33.015625 
L 88.921875 0 
L 79.890625 0 
L 79.890625 32.71875 
Q 79.890625 40.578125 77.09375 44.375 
Q 74.3125 48.1875 68.609375 48.1875 
Q 61.625 48.1875 57.5625 43.546875 
Q 53.515625 38.921875 53.515625 30.90625 
L 53.515625 0 
L 44.484375 0 
L 44.484375 32.71875 
Q 44.484375 40.625 41.703125 44.40625 
Q 38.921875 48.1875 33.109375 48.1875 
Q 26.21875 48.1875 22.15625 43.53125 
Q 18.109375 38.875 18.109375 30.90625 
L 18.109375 0 
L 9.078125 0 
L 9.078125 54.6875 
L 18.109375 54.6875 
L 18.109375 46.1875 
Q 21.1875 51.21875 25.484375 53.609375 
Q 29.78125 56 35.6875 56 
Q 41.65625 56 45.828125 52.96875 
Q 50 49.953125 52 44.1875 
" id="BitstreamVeraSans-Roman-6d"/>
     <path d="M 9.421875 54.6875 
L 18.40625 54.6875 
L 18.40625 0 
L 9.421875 0 
z
M 9.421875 75.984375 
L 18.40625 75.984375 
L 18.40625 64.59375 
L 9.421875 64.59375 
z
" id="BitstreamVeraSans-Roman-69"/>
     <path d="M 37.109375 75.984375 
L 37.109375 68.5 
L 28.515625 68.5 
Q 23.6875 68.5 21.796875 66.546875 
Q 19.921875 64.59375 19.921875 59.515625 
L 19.921875 54.6875 
L 34.71875 54.6875 
L 34.71875 47.703125 
L 19.921875 47.703125 
L 19.921875 0 
L 10.890625 0 
L 10.890625 47.703125 
L 2.296875 47.703125 
L 2.296875 54.6875 
L 10.890625 54.6875 
L 10.890625 58.5 
Q 10.890625 67.625 15.140625 71.796875 
Q 19.390625 75.984375 28.609375 75.984375 
z
" id="BitstreamVeraSans-Roman-66"/>
     <path d="M 44.28125 53.078125 
L 44.28125 44.578125 
Q 40.484375 46.53125 36.375 47.5 
Q 32.28125 48.484375 27.875 48.484375 
Q 21.1875 48.484375 17.84375 46.4375 
Q 14.5 44.390625 14.5 40.28125 
Q 14.5 37.15625 16.890625 35.375 
Q 19.28125 33.59375 26.515625 31.984375 
L 29.59375 31.296875 
Q 39.15625 29.25 43.1875 25.515625 
Q 47.21875 21.78125 47.21875 15.09375 
Q 47.21875 7.46875 41.1875 3.015625 
Q 35.15625 -1.421875 24.609375 -1.421875 
Q 20.21875 -1.421875 15.453125 -0.5625 
Q 10.6875 0.296875 5.421875 2 
L 5.421875 11.28125 
Q 10.40625 8.6875 15.234375 7.390625 
Q 20.0625 6.109375 24.8125 6.109375 
Q 31.15625 6.109375 34.5625 8.28125 
Q 37.984375 10.453125 37.984375 14.40625 
Q 37.984375 18.0625 35.515625 20.015625 
Q 33.0625 21.96875 24.703125 23.78125 
L 21.578125 24.515625 
Q 13.234375 26.265625 9.515625 29.90625 
Q 5.8125 33.546875 5.8125 39.890625 
Q 5.8125 47.609375 11.28125 51.796875 
Q 16.75 56 26.8125 56 
Q 31.78125 56 36.171875 55.265625 
Q 40.578125 54.546875 44.28125 53.078125 
" id="BitstreamVeraSans-Roman-73"/>
     <path d="M 48.78125 52.59375 
L 48.78125 44.1875 
Q 44.96875 46.296875 41.140625 47.34375 
Q 37.3125 48.390625 33.40625 48.390625 
Q 24.65625 48.390625 19.8125 42.84375 
Q 14.984375 37.3125 14.984375 27.296875 
Q 14.984375 17.28125 19.8125 11.734375 
Q 24.65625 6.203125 33.40625 6.203125 
Q 37.3125 6.203125 41.140625 7.25 
Q 44.96875 8.296875 48.78125 10.40625 
L 48.78125 2.09375 
Q 45.015625 0.34375 40.984375 -0.53125 
Q 36.96875 -1.421875 32.421875 -1.421875 
Q 20.0625 -1.421875 12.78125 6.34375 
Q 5.515625 14.109375 5.515625 27.296875 
Q 5.515625 40.671875 12.859375 48.328125 
Q 20.21875 56 33.015625 56 
Q 37.15625 56 41.109375 55.140625 
Q 45.0625 54.296875 48.78125 52.59375 
" id="BitstreamVeraSans-Roman-63"/>
    </defs>
    <g transform="translate(281.038004147 170.222727273)scale(0.07 -0.07)">
     <use xlink:href="#BitstreamVeraSans-Roman-73"/>
     <use x="52.099609375" xlink:href="#BitstreamVeraSans-Roman-5f"/>
     <use x="102.099609375" xlink:href="#BitstreamVeraSans-Roman-5f"/>
     <use x="152.099609375" xlink:href="#BitstreamVeraSans-Roman-44"/>
     <use x="229.1015625" xlink:href="#BitstreamVeraSans-Roman-6f"/>
     <use x="290.283203125" xlink:href="#BitstreamVeraSans-Roman-72"/>
     <use x="331.365234375" xlink:href="#BitstreamVeraSans-Roman-65"/>
     <use x="392.888671875" xlink:href="#BitstreamVeraSans-Roman-61"/>
     <use x="454.16796875" xlink:href="#BitstreamVeraSans-Roman-66"/>
     <use x="489.373046875" xlink:href="#BitstreamVeraSans-Roman-6f"/>
     <use x="550.5546875" xlink:href="#BitstreamVeraSans-Roman-72"/>
     <use x="591.65234375" xlink:href="#BitstreamVeraSans-Roman-6d"/>
     <use x="689.064453125" xlink:href="#BitstreamVeraSans-Roman-69"/>
     <use x="716.84765625" xlink:href="#BitstreamVeraSans-Roman-63"/>
     <use x="771.828125" xlink:href="#BitstreamVeraSans-Roman-69"/>
     <use x="799.611328125" xlink:href="#BitstreamVeraSans-Roman-67"/>
     <use x="863.087890625" xlink:href="#BitstreamVeraSans-Roman-65"/>
     <use x="924.611328125" xlink:href="#BitstreamVeraSans-Roman-6e"/>
     <use x="987.990234375" xlink:href="#BitstreamVeraSans-Roman-65"/>
     <use x="1049.51367188" xlink:href="#BitstreamVeraSans-Roman-72"/>
     <use x="1090.62695312" xlink:href="#BitstreamVeraSans-Roman-61"/>
     <use x="1151.90625" xlink:href="#BitstreamVeraSans-Roman-6e"/>
     <use x="1215.28515625" xlink:href="#BitstreamVeraSans-Roman-73"/>
    </g>
   </g>
   <g id="text_9">
    <!-- s__Clostridiumorbiscindens -->
    <defs>
     <path d="M 45.40625 46.390625 
L 45.40625 75.984375 
L 54.390625 75.984375 
L 54.390625 0 
L 45.40625 0 
L 45.40625 8.203125 
Q 42.578125 3.328125 38.25 0.953125 
Q 33.9375 -1.421875 27.875 -1.421875 
Q 17.96875 -1.421875 11.734375 6.484375 
Q 5.515625 14.40625 5.515625 27.296875 
Q 5.515625 40.1875 11.734375 48.09375 
Q 17.96875 56 27.875 56 
Q 33.9375 56 38.25 53.625 
Q 42.578125 51.265625 45.40625 46.390625 
M 14.796875 27.296875 
Q 14.796875 17.390625 18.875 11.75 
Q 22.953125 6.109375 30.078125 6.109375 
Q 37.203125 6.109375 41.296875 11.75 
Q 45.40625 17.390625 45.40625 27.296875 
Q 45.40625 37.203125 41.296875 42.84375 
Q 37.203125 48.484375 30.078125 48.484375 
Q 22.953125 48.484375 18.875 42.84375 
Q 14.796875 37.203125 14.796875 27.296875 
" id="BitstreamVeraSans-Roman-64"/>
     <path d="M 18.3125 70.21875 
L 18.3125 54.6875 
L 36.8125 54.6875 
L 36.8125 47.703125 
L 18.3125 47.703125 
L 18.3125 18.015625 
Q 18.3125 11.328125 20.140625 9.421875 
Q 21.96875 7.515625 27.59375 7.515625 
L 36.8125 7.515625 
L 36.8125 0 
L 27.59375 0 
Q 17.1875 0 13.234375 3.875 
Q 9.28125 7.765625 9.28125 18.015625 
L 9.28125 47.703125 
L 2.6875 47.703125 
L 2.6875 54.6875 
L 9.28125 54.6875 
L 9.28125 70.21875 
z
" id="BitstreamVeraSans-Roman-74"/>
     <path d="M 8.5 21.578125 
L 8.5 54.6875 
L 17.484375 54.6875 
L 17.484375 21.921875 
Q 17.484375 14.15625 20.5 10.265625 
Q 23.53125 6.390625 29.59375 6.390625 
Q 36.859375 6.390625 41.078125 11.03125 
Q 45.3125 15.671875 45.3125 23.6875 
L 45.3125 54.6875 
L 54.296875 54.6875 
L 54.296875 0 
L 45.3125 0 
L 45.3125 8.40625 
Q 42.046875 3.421875 37.71875 1 
Q 33.40625 -1.421875 27.6875 -1.421875 
Q 18.265625 -1.421875 13.375 4.4375 
Q 8.5 10.296875 8.5 21.578125 
" id="BitstreamVeraSans-Roman-75"/>
     <path d="M 48.6875 27.296875 
Q 48.6875 37.203125 44.609375 42.84375 
Q 40.53125 48.484375 33.40625 48.484375 
Q 26.265625 48.484375 22.1875 42.84375 
Q 18.109375 37.203125 18.109375 27.296875 
Q 18.109375 17.390625 22.1875 11.75 
Q 26.265625 6.109375 33.40625 6.109375 
Q 40.53125 6.109375 44.609375 11.75 
Q 48.6875 17.390625 48.6875 27.296875 
M 18.109375 46.390625 
Q 20.953125 51.265625 25.265625 53.625 
Q 29.59375 56 35.59375 56 
Q 45.5625 56 51.78125 48.09375 
Q 58.015625 40.1875 58.015625 27.296875 
Q 58.015625 14.40625 51.78125 6.484375 
Q 45.5625 -1.421875 35.59375 -1.421875 
Q 29.59375 -1.421875 25.265625 0.953125 
Q 20.953125 3.328125 18.109375 8.203125 
L 18.109375 0 
L 9.078125 0 
L 9.078125 75.984375 
L 18.109375 75.984375 
z
" id="BitstreamVeraSans-Roman-62"/>
    </defs>
    <g transform="translate(281.038004147 159.177272727)scale(0.07 -0.07)">
     <use xlink:href="#BitstreamVeraSans-Roman-73"/>
     <use x="52.099609375" xlink:href="#BitstreamVeraSans-Roman-5f"/>
     <use x="102.099609375" xlink:href="#BitstreamVeraSans-Roman-5f"/>
     <use x="152.099609375" xlink:href="#BitstreamVeraSans-Roman-43"/>
     <use x="221.923828125" xlink:href="#BitstreamVeraSans-Roman-6c"/>
     <use x="249.70703125" xlink:href="#BitstreamVeraSans-Roman-6f"/>
     <use x="310.888671875" xlink:href="#BitstreamVeraSans-Roman-73"/>
     <use x="362.98828125" xlink:href="#BitstreamVeraSans-Roman-74"/>
     <use x="402.197265625" xlink:href="#BitstreamVeraSans-Roman-72"/>
     <use x="443.310546875" xlink:href="#BitstreamVeraSans-Roman-69"/>
     <use x="471.09375" xlink:href="#BitstreamVeraSans-Roman-64"/>
     <use x="534.5703125" xlink:href="#BitstreamVeraSans-Roman-69"/>
     <use x="562.353515625" xlink:href="#BitstreamVeraSans-Roman-75"/>
     <use x="625.732421875" xlink:href="#BitstreamVeraSans-Roman-6d"/>
     <use x="723.14453125" xlink:href="#BitstreamVeraSans-Roman-6f"/>
     <use x="784.326171875" xlink:href="#BitstreamVeraSans-Roman-72"/>
     <use x="825.439453125" xlink:href="#BitstreamVeraSans-Roman-62"/>
     <use x="888.916015625" xlink:href="#BitstreamVeraSans-Roman-69"/>
     <use x="916.69921875" xlink:href="#BitstreamVeraSans-Roman-73"/>
     <use x="968.798828125" xlink:href="#BitstreamVeraSans-Roman-63"/>
     <use x="1023.77929688" xlink:href="#BitstreamVeraSans-Roman-69"/>
     <use x="1051.5625" xlink:href="#BitstreamVeraSans-Roman-6e"/>
     <use x="1114.94140625" xlink:href="#BitstreamVeraSans-Roman-64"/>
     <use x="1178.41796875" xlink:href="#BitstreamVeraSans-Roman-65"/>
     <use x="1239.94140625" xlink:href="#BitstreamVeraSans-Roman-6e"/>
     <use x="1303.3203125" xlink:href="#BitstreamVeraSans-Roman-73"/>
    </g>
   </g>
   <g id="text_10">
    <!-- f__Ruminococcaceae -->
    <g transform="translate(281.038004147 148.131818182)scale(0.07 -0.07)">
     <use xlink:href="#BitstreamVeraSans-Roman-66"/>
     <use x="35.205078125" xlink:href="#BitstreamVeraSans-Roman-5f"/>
     <use x="85.205078125" xlink:href="#BitstreamVeraSans-Roman-5f"/>
     <use x="135.205078125" xlink:href="#BitstreamVeraSans-Roman-52"/>
     <use x="204.625" xlink:href="#BitstreamVeraSans-Roman-75"/>
     <use x="268.00390625" xlink:href="#BitstreamVeraSans-Roman-6d"/>
     <use x="365.416015625" xlink:href="#BitstreamVeraSans-Roman-69"/>
     <use x="393.19921875" xlink:href="#BitstreamVeraSans-Roman-6e"/>
     <use x="456.578125" xlink:href="#BitstreamVeraSans-Roman-6f"/>
     <use x="517.759765625" xlink:href="#BitstreamVeraSans-Roman-63"/>
     <use x="572.740234375" xlink:href="#BitstreamVeraSans-Roman-6f"/>
     <use x="633.921875" xlink:href="#BitstreamVeraSans-Roman-63"/>
     <use x="688.90234375" xlink:href="#BitstreamVeraSans-Roman-63"/>
     <use x="743.8828125" xlink:href="#BitstreamVeraSans-Roman-61"/>
     <use x="805.162109375" xlink:href="#BitstreamVeraSans-Roman-63"/>
     <use x="860.142578125" xlink:href="#BitstreamVeraSans-Roman-65"/>
     <use x="921.666015625" xlink:href="#BitstreamVeraSans-Roman-61"/>
     <use x="982.9453125" xlink:href="#BitstreamVeraSans-Roman-65"/>
    </g>
   </g>
   <g id="text_11">
    <!-- s__Streptococcuspseudopneumoniae -->
    <defs>
     <path d="M 18.109375 8.203125 
L 18.109375 -20.796875 
L 9.078125 -20.796875 
L 9.078125 54.6875 
L 18.109375 54.6875 
L 18.109375 46.390625 
Q 20.953125 51.265625 25.265625 53.625 
Q 29.59375 56 35.59375 56 
Q 45.5625 56 51.78125 48.09375 
Q 58.015625 40.1875 58.015625 27.296875 
Q 58.015625 14.40625 51.78125 6.484375 
Q 45.5625 -1.421875 35.59375 -1.421875 
Q 29.59375 -1.421875 25.265625 0.953125 
Q 20.953125 3.328125 18.109375 8.203125 
M 48.6875 27.296875 
Q 48.6875 37.203125 44.609375 42.84375 
Q 40.53125 48.484375 33.40625 48.484375 
Q 26.265625 48.484375 22.1875 42.84375 
Q 18.109375 37.203125 18.109375 27.296875 
Q 18.109375 17.390625 22.1875 11.75 
Q 26.265625 6.109375 33.40625 6.109375 
Q 40.53125 6.109375 44.609375 11.75 
Q 48.6875 17.390625 48.6875 27.296875 
" id="BitstreamVeraSans-Roman-70"/>
    </defs>
    <g transform="translate(143.696839603 137.086363636)scale(0.07 -0.07)">
     <use xlink:href="#BitstreamVeraSans-Roman-73"/>
     <use x="52.099609375" xlink:href="#BitstreamVeraSans-Roman-5f"/>
     <use x="102.099609375" xlink:href="#BitstreamVeraSans-Roman-5f"/>
     <use x="152.099609375" xlink:href="#BitstreamVeraSans-Roman-53"/>
     <use x="215.576171875" xlink:href="#BitstreamVeraSans-Roman-74"/>
     <use x="254.78515625" xlink:href="#BitstreamVeraSans-Roman-72"/>
     <use x="295.8671875" xlink:href="#BitstreamVeraSans-Roman-65"/>
     <use x="357.390625" xlink:href="#BitstreamVeraSans-Roman-70"/>
     <use x="420.8671875" xlink:href="#BitstreamVeraSans-Roman-74"/>
     <use x="460.076171875" xlink:href="#BitstreamVeraSans-Roman-6f"/>
     <use x="521.2578125" xlink:href="#BitstreamVeraSans-Roman-63"/>
     <use x="576.23828125" xlink:href="#BitstreamVeraSans-Roman-6f"/>
     <use x="637.419921875" xlink:href="#BitstreamVeraSans-Roman-63"/>
     <use x="692.400390625" xlink:href="#BitstreamVeraSans-Roman-63"/>
     <use x="747.380859375" xlink:href="#BitstreamVeraSans-Roman-75"/>
     <use x="810.759765625" xlink:href="#BitstreamVeraSans-Roman-73"/>
     <use x="862.859375" xlink:href="#BitstreamVeraSans-Roman-70"/>
     <use x="926.3359375" xlink:href="#BitstreamVeraSans-Roman-73"/>
     <use x="978.435546875" xlink:href="#BitstreamVeraSans-Roman-65"/>
     <use x="1039.95898438" xlink:href="#BitstreamVeraSans-Roman-75"/>
     <use x="1103.33789062" xlink:href="#BitstreamVeraSans-Roman-64"/>
     <use x="1166.81445312" xlink:href="#BitstreamVeraSans-Roman-6f"/>
     <use x="1227.99609375" xlink:href="#BitstreamVeraSans-Roman-70"/>
     <use x="1291.47265625" xlink:href="#BitstreamVeraSans-Roman-6e"/>
     <use x="1354.8515625" xlink:href="#BitstreamVeraSans-Roman-65"/>
     <use x="1416.375" xlink:href="#BitstreamVeraSans-Roman-75"/>
     <use x="1479.75390625" xlink:href="#BitstreamVeraSans-Roman-6d"/>
     <use x="1577.16601562" xlink:href="#BitstreamVeraSans-Roman-6f"/>
     <use x="1638.34765625" xlink:href="#BitstreamVeraSans-Roman-6e"/>
     <use x="1701.7265625" xlink:href="#BitstreamVeraSans-Roman-69"/>
     <use x="1729.50976562" xlink:href="#BitstreamVeraSans-Roman-61"/>
     <use x="1790.7890625" xlink:href="#BitstreamVeraSans-Roman-65"/>
    </g>
   </g>
   <g id="text_12">
    <!-- g__Tetragenococcus -->
    <defs>
     <path d="M -0.296875 72.90625 
L 61.375 72.90625 
L 61.375 64.59375 
L 35.5 64.59375 
L 35.5 0 
L 25.59375 0 
L 25.59375 64.59375 
L -0.296875 64.59375 
z
" id="BitstreamVeraSans-Roman-54"/>
    </defs>
    <g transform="translate(202.059339603 126.040909091)scale(0.07 -0.07)">
     <use xlink:href="#BitstreamVeraSans-Roman-67"/>
     <use x="63.4765625" xlink:href="#BitstreamVeraSans-Roman-5f"/>
     <use x="113.4765625" xlink:href="#BitstreamVeraSans-Roman-5f"/>
     <use x="163.4765625" xlink:href="#BitstreamVeraSans-Roman-54"/>
     <use x="224.294921875" xlink:href="#BitstreamVeraSans-Roman-65"/>
     <use x="285.818359375" xlink:href="#BitstreamVeraSans-Roman-74"/>
     <use x="325.02734375" xlink:href="#BitstreamVeraSans-Roman-72"/>
     <use x="366.140625" xlink:href="#BitstreamVeraSans-Roman-61"/>
     <use x="427.419921875" xlink:href="#BitstreamVeraSans-Roman-67"/>
     <use x="490.896484375" xlink:href="#BitstreamVeraSans-Roman-65"/>
     <use x="552.419921875" xlink:href="#BitstreamVeraSans-Roman-6e"/>
     <use x="615.798828125" xlink:href="#BitstreamVeraSans-Roman-6f"/>
     <use x="676.98046875" xlink:href="#BitstreamVeraSans-Roman-63"/>
     <use x="731.9609375" xlink:href="#BitstreamVeraSans-Roman-6f"/>
     <use x="793.142578125" xlink:href="#BitstreamVeraSans-Roman-63"/>
     <use x="848.123046875" xlink:href="#BitstreamVeraSans-Roman-63"/>
     <use x="903.103515625" xlink:href="#BitstreamVeraSans-Roman-75"/>
     <use x="966.482421875" xlink:href="#BitstreamVeraSans-Roman-73"/>
    </g>
   </g>
   <g id="text_13">
    <!-- s__Streptococcusphocae -->
    <defs>
     <path d="M 54.890625 33.015625 
L 54.890625 0 
L 45.90625 0 
L 45.90625 32.71875 
Q 45.90625 40.484375 42.875 44.328125 
Q 39.84375 48.1875 33.796875 48.1875 
Q 26.515625 48.1875 22.3125 43.546875 
Q 18.109375 38.921875 18.109375 30.90625 
L 18.109375 0 
L 9.078125 0 
L 9.078125 75.984375 
L 18.109375 75.984375 
L 18.109375 46.1875 
Q 21.34375 51.125 25.703125 53.5625 
Q 30.078125 56 35.796875 56 
Q 45.21875 56 50.046875 50.171875 
Q 54.890625 44.34375 54.890625 33.015625 
" id="BitstreamVeraSans-Roman-68"/>
    </defs>
    <g transform="translate(187.351683353 114.995454545)scale(0.07 -0.07)">
     <use xlink:href="#BitstreamVeraSans-Roman-73"/>
     <use x="52.099609375" xlink:href="#BitstreamVeraSans-Roman-5f"/>
     <use x="102.099609375" xlink:href="#BitstreamVeraSans-Roman-5f"/>
     <use x="152.099609375" xlink:href="#BitstreamVeraSans-Roman-53"/>
     <use x="215.576171875" xlink:href="#BitstreamVeraSans-Roman-74"/>
     <use x="254.78515625" xlink:href="#BitstreamVeraSans-Roman-72"/>
     <use x="295.8671875" xlink:href="#BitstreamVeraSans-Roman-65"/>
     <use x="357.390625" xlink:href="#BitstreamVeraSans-Roman-70"/>
     <use x="420.8671875" xlink:href="#BitstreamVeraSans-Roman-74"/>
     <use x="460.076171875" xlink:href="#BitstreamVeraSans-Roman-6f"/>
     <use x="521.2578125" xlink:href="#BitstreamVeraSans-Roman-63"/>
     <use x="576.23828125" xlink:href="#BitstreamVeraSans-Roman-6f"/>
     <use x="637.419921875" xlink:href="#BitstreamVeraSans-Roman-63"/>
     <use x="692.400390625" xlink:href="#BitstreamVeraSans-Roman-63"/>
     <use x="747.380859375" xlink:href="#BitstreamVeraSans-Roman-75"/>
     <use x="810.759765625" xlink:href="#BitstreamVeraSans-Roman-73"/>
     <use x="862.859375" xlink:href="#BitstreamVeraSans-Roman-70"/>
     <use x="926.3359375" xlink:href="#BitstreamVeraSans-Roman-68"/>
     <use x="989.71484375" xlink:href="#BitstreamVeraSans-Roman-6f"/>
     <use x="1050.89648438" xlink:href="#BitstreamVeraSans-Roman-63"/>
     <use x="1105.87695312" xlink:href="#BitstreamVeraSans-Roman-61"/>
     <use x="1167.15625" xlink:href="#BitstreamVeraSans-Roman-65"/>
    </g>
   </g>
   <g id="text_14">
    <!-- f__Veillonellaceae -->
    <defs>
     <path d="M 28.609375 0 
L 0.78125 72.90625 
L 11.078125 72.90625 
L 34.1875 11.53125 
L 57.328125 72.90625 
L 67.578125 72.90625 
L 39.796875 0 
z
" id="BitstreamVeraSans-Roman-56"/>
    </defs>
    <g transform="translate(211.017152103 103.95)scale(0.07 -0.07)">
     <use xlink:href="#BitstreamVeraSans-Roman-66"/>
     <use x="35.205078125" xlink:href="#BitstreamVeraSans-Roman-5f"/>
     <use x="85.205078125" xlink:href="#BitstreamVeraSans-Roman-5f"/>
     <use x="135.205078125" xlink:href="#BitstreamVeraSans-Roman-56"/>
     <use x="203.50390625" xlink:href="#BitstreamVeraSans-Roman-65"/>
     <use x="265.02734375" xlink:href="#BitstreamVeraSans-Roman-69"/>
     <use x="292.810546875" xlink:href="#BitstreamVeraSans-Roman-6c"/>
     <use x="320.59375" xlink:href="#BitstreamVeraSans-Roman-6c"/>
     <use x="348.376953125" xlink:href="#BitstreamVeraSans-Roman-6f"/>
     <use x="409.55859375" xlink:href="#BitstreamVeraSans-Roman-6e"/>
     <use x="472.9375" xlink:href="#BitstreamVeraSans-Roman-65"/>
     <use x="534.4609375" xlink:href="#BitstreamVeraSans-Roman-6c"/>
     <use x="562.244140625" xlink:href="#BitstreamVeraSans-Roman-6c"/>
     <use x="590.02734375" xlink:href="#BitstreamVeraSans-Roman-61"/>
     <use x="651.306640625" xlink:href="#BitstreamVeraSans-Roman-63"/>
     <use x="706.287109375" xlink:href="#BitstreamVeraSans-Roman-65"/>
     <use x="767.810546875" xlink:href="#BitstreamVeraSans-Roman-61"/>
     <use x="829.08984375" xlink:href="#BitstreamVeraSans-Roman-65"/>
    </g>
   </g>
   <g id="text_15">
    <!-- f__Peptostreptococcaceae -->
    <defs>
     <path d="M 19.671875 64.796875 
L 19.671875 37.40625 
L 32.078125 37.40625 
Q 38.96875 37.40625 42.71875 40.96875 
Q 46.484375 44.53125 46.484375 51.125 
Q 46.484375 57.671875 42.71875 61.234375 
Q 38.96875 64.796875 32.078125 64.796875 
z
M 9.8125 72.90625 
L 32.078125 72.90625 
Q 44.34375 72.90625 50.609375 67.359375 
Q 56.890625 61.8125 56.890625 51.125 
Q 56.890625 40.328125 50.609375 34.8125 
Q 44.34375 29.296875 32.078125 29.296875 
L 19.671875 29.296875 
L 19.671875 0 
L 9.8125 0 
z
" id="BitstreamVeraSans-Roman-50"/>
    </defs>
    <g transform="translate(181.984652103 92.9045454545)scale(0.07 -0.07)">
     <use xlink:href="#BitstreamVeraSans-Roman-66"/>
     <use x="35.205078125" xlink:href="#BitstreamVeraSans-Roman-5f"/>
     <use x="85.205078125" xlink:href="#BitstreamVeraSans-Roman-5f"/>
     <use x="135.205078125" xlink:href="#BitstreamVeraSans-Roman-50"/>
     <use x="195.4609375" xlink:href="#BitstreamVeraSans-Roman-65"/>
     <use x="256.984375" xlink:href="#BitstreamVeraSans-Roman-70"/>
     <use x="320.4609375" xlink:href="#BitstreamVeraSans-Roman-74"/>
     <use x="359.669921875" xlink:href="#BitstreamVeraSans-Roman-6f"/>
     <use x="420.8515625" xlink:href="#BitstreamVeraSans-Roman-73"/>
     <use x="472.951171875" xlink:href="#BitstreamVeraSans-Roman-74"/>
     <use x="512.16015625" xlink:href="#BitstreamVeraSans-Roman-72"/>
     <use x="553.2421875" xlink:href="#BitstreamVeraSans-Roman-65"/>
     <use x="614.765625" xlink:href="#BitstreamVeraSans-Roman-70"/>
     <use x="678.2421875" xlink:href="#BitstreamVeraSans-Roman-74"/>
     <use x="717.451171875" xlink:href="#BitstreamVeraSans-Roman-6f"/>
     <use x="778.6328125" xlink:href="#BitstreamVeraSans-Roman-63"/>
     <use x="833.61328125" xlink:href="#BitstreamVeraSans-Roman-6f"/>
     <use x="894.794921875" xlink:href="#BitstreamVeraSans-Roman-63"/>
     <use x="949.775390625" xlink:href="#BitstreamVeraSans-Roman-63"/>
     <use x="1004.75585938" xlink:href="#BitstreamVeraSans-Roman-61"/>
     <use x="1066.03515625" xlink:href="#BitstreamVeraSans-Roman-63"/>
     <use x="1121.015625" xlink:href="#BitstreamVeraSans-Roman-65"/>
     <use x="1182.5390625" xlink:href="#BitstreamVeraSans-Roman-61"/>
     <use x="1243.81835938" xlink:href="#BitstreamVeraSans-Roman-65"/>
    </g>
   </g>
   <g id="text_16">
    <!-- s__Peptostreptococcusanaerobius -->
    <g transform="translate(154.809339603 81.8590909091)scale(0.07 -0.07)">
     <use xlink:href="#BitstreamVeraSans-Roman-73"/>
     <use x="52.099609375" xlink:href="#BitstreamVeraSans-Roman-5f"/>
     <use x="102.099609375" xlink:href="#BitstreamVeraSans-Roman-5f"/>
     <use x="152.099609375" xlink:href="#BitstreamVeraSans-Roman-50"/>
     <use x="212.35546875" xlink:href="#BitstreamVeraSans-Roman-65"/>
     <use x="273.87890625" xlink:href="#BitstreamVeraSans-Roman-70"/>
     <use x="337.35546875" xlink:href="#BitstreamVeraSans-Roman-74"/>
     <use x="376.564453125" xlink:href="#BitstreamVeraSans-Roman-6f"/>
     <use x="437.74609375" xlink:href="#BitstreamVeraSans-Roman-73"/>
     <use x="489.845703125" xlink:href="#BitstreamVeraSans-Roman-74"/>
     <use x="529.0546875" xlink:href="#BitstreamVeraSans-Roman-72"/>
     <use x="570.13671875" xlink:href="#BitstreamVeraSans-Roman-65"/>
     <use x="631.66015625" xlink:href="#BitstreamVeraSans-Roman-70"/>
     <use x="695.13671875" xlink:href="#BitstreamVeraSans-Roman-74"/>
     <use x="734.345703125" xlink:href="#BitstreamVeraSans-Roman-6f"/>
     <use x="795.52734375" xlink:href="#BitstreamVeraSans-Roman-63"/>
     <use x="850.5078125" xlink:href="#BitstreamVeraSans-Roman-6f"/>
     <use x="911.689453125" xlink:href="#BitstreamVeraSans-Roman-63"/>
     <use x="966.669921875" xlink:href="#BitstreamVeraSans-Roman-63"/>
     <use x="1021.65039062" xlink:href="#BitstreamVeraSans-Roman-75"/>
     <use x="1085.02929688" xlink:href="#BitstreamVeraSans-Roman-73"/>
     <use x="1137.12890625" xlink:href="#BitstreamVeraSans-Roman-61"/>
     <use x="1198.40820312" xlink:href="#BitstreamVeraSans-Roman-6e"/>
     <use x="1261.78710938" xlink:href="#BitstreamVeraSans-Roman-61"/>
     <use x="1323.06640625" xlink:href="#BitstreamVeraSans-Roman-65"/>
     <use x="1384.58984375" xlink:href="#BitstreamVeraSans-Roman-72"/>
     <use x="1425.671875" xlink:href="#BitstreamVeraSans-Roman-6f"/>
     <use x="1486.85351562" xlink:href="#BitstreamVeraSans-Roman-62"/>
     <use x="1550.33007812" xlink:href="#BitstreamVeraSans-Roman-69"/>
     <use x="1578.11328125" xlink:href="#BitstreamVeraSans-Roman-75"/>
     <use x="1641.4921875" xlink:href="#BitstreamVeraSans-Roman-73"/>
    </g>
   </g>
   <g id="legend_1">
    <g id="patch_12">
     <path d="M 104.8 58.990312 
L 124.8 58.990312 
L 124.8 51.990312 
L 104.8 51.990312 
z
" style="fill:#ff0000;stroke:#000000;stroke-linejoin:miter;"/>
    </g>
    <g id="text_17">
     <!-- Healthy -->
     <defs>
      <path d="M 32.171875 -5.078125 
Q 28.375 -14.84375 24.75 -17.8125 
Q 21.140625 -20.796875 15.09375 -20.796875 
L 7.90625 -20.796875 
L 7.90625 -13.28125 
L 13.1875 -13.28125 
Q 16.890625 -13.28125 18.9375 -11.515625 
Q 21 -9.765625 23.484375 -3.21875 
L 25.09375 0.875 
L 2.984375 54.6875 
L 12.5 54.6875 
L 29.59375 11.921875 
L 46.6875 54.6875 
L 56.203125 54.6875 
z
" id="BitstreamVeraSans-Roman-79"/>
      <path d="M 9.8125 72.90625 
L 19.671875 72.90625 
L 19.671875 43.015625 
L 55.515625 43.015625 
L 55.515625 72.90625 
L 65.375 72.90625 
L 65.375 0 
L 55.515625 0 
L 55.515625 34.71875 
L 19.671875 34.71875 
L 19.671875 0 
L 9.8125 0 
z
" id="BitstreamVeraSans-Roman-48"/>
     </defs>
     <g transform="translate(132.8 58.9903125)scale(0.1 -0.1)">
      <use xlink:href="#BitstreamVeraSans-Roman-48"/>
      <use x="75.1953125" xlink:href="#BitstreamVeraSans-Roman-65"/>
      <use x="136.71875" xlink:href="#BitstreamVeraSans-Roman-61"/>
      <use x="197.998046875" xlink:href="#BitstreamVeraSans-Roman-6c"/>
      <use x="225.78125" xlink:href="#BitstreamVeraSans-Roman-74"/>
      <use x="264.990234375" xlink:href="#BitstreamVeraSans-Roman-68"/>
      <use x="328.369140625" xlink:href="#BitstreamVeraSans-Roman-79"/>
     </g>
    </g>
    <g id="patch_13">
     <path d="M 191.55625 58.990312 
L 211.55625 58.990312 
L 211.55625 51.990312 
L 191.55625 51.990312 
z
" style="fill:#008000;stroke:#000000;stroke-linejoin:miter;"/>
    </g>
    <g id="text_18">
     <!-- Tumor -->
     <g transform="translate(219.55625 58.9903125)scale(0.1 -0.1)">
      <use xlink:href="#BitstreamVeraSans-Roman-54"/>
      <use x="60.849609375" xlink:href="#BitstreamVeraSans-Roman-75"/>
      <use x="124.228515625" xlink:href="#BitstreamVeraSans-Roman-6d"/>
      <use x="221.640625" xlink:href="#BitstreamVeraSans-Roman-6f"/>
      <use x="282.822265625" xlink:href="#BitstreamVeraSans-Roman-72"/>
     </g>
    </g>
   </g>
  </g>
 </g>
 <defs>
  <clipPath id="p7d0cf04594">
   <rect height="121.5" width="352.8" x="100.8" y="67.5"/>
  </clipPath>
 </defs>
</svg>
